<svg id="columns-03" xmlns="http://www.w3.org/2000/svg" width="16" height="16" viewBox="0 0 16 16">
  <rect id="columns-03-2" data-name="columns-03" width="16" height="16" fill="none"/>
  <path id="Icon" d="M10.908.218a2,2,0,0,1,.874.874A4.969,4.969,0,0,1,12,3.2V8.8a4.969,4.969,0,0,1-.218,2.108,2,2,0,0,1-.874.874A4.969,4.969,0,0,1,8.8,12H3.2a4.969,4.969,0,0,1-2.108-.218,2,2,0,0,1-.874-.874A4.969,4.969,0,0,1,0,8.8V3.2A4.969,4.969,0,0,1,.218,1.092,2,2,0,0,1,1.092.218,4.969,4.969,0,0,1,3.2,0H8.8a4.969,4.969,0,0,1,2.108.218Z" transform="translate(2 2)" fill="none" stroke="#000" stroke-linecap="round" stroke-linejoin="round" stroke-width="1"/>
  <path id="Icon-2" data-name="Icon" d="M4,0V12M8,0V12" transform="translate(2 2)" fill="none" stroke="#000" stroke-linecap="round" stroke-linejoin="round" stroke-width="1"/>
</svg>
