<svg xmlns="http://www.w3.org/2000/svg" xmlns:xlink="http://www.w3.org/1999/xlink" width="77.093" height="36.953" viewBox="0 0 77.093 36.953">
  <defs>
    <radialGradient id="radial-gradient" cx="0.549" cy="0.34" r="2.162" gradientUnits="objectBoundingBox">
      <stop offset="0.006" stop-color="#ad1357"/>
      <stop offset="0.994" stop-color="#9b0c4a"/>
    </radialGradient>
    <radialGradient id="radial-gradient-2" cx="0.5" cy="0.5" r="1.591" gradientUnits="objectBoundingBox">
      <stop offset="0.065" stop-color="#32a9e3"/>
      <stop offset="0.338" stop-color="#269ad8"/>
      <stop offset="0.856" stop-color="#0974bc"/>
      <stop offset="1" stop-color="#0069b4"/>
    </radialGradient>
    <radialGradient id="radial-gradient-3" cx="0.732" cy="0.913" r="1.953" gradientUnits="objectBoundingBox">
      <stop offset="0.04" stop-color="#96b33f"/>
      <stop offset="0.239" stop-color="#86ac3a"/>
      <stop offset="0.604" stop-color="#6ea232"/>
      <stop offset="0.831" stop-color="#669f30"/>
    </radialGradient>
    <linearGradient id="linear-gradient" x1="0.411" y1="0.544" x2="0.733" y2="0.997" gradientUnits="objectBoundingBox">
      <stop offset="0" stop-color="#1772ba"/>
      <stop offset="0.083" stop-color="#1977be"/>
      <stop offset="0.681" stop-color="#2b9bd8"/>
      <stop offset="1" stop-color="#32a9e3"/>
    </linearGradient>
    <linearGradient id="linear-gradient-2" x1="0.76" y1="0.67" x2="0.234" y2="0.211" gradientUnits="objectBoundingBox">
      <stop offset="0" stop-color="#5db6e8"/>
      <stop offset="0.177" stop-color="#54aee3"/>
      <stop offset="0.464" stop-color="#3c9bd5"/>
      <stop offset="0.822" stop-color="#157bc0"/>
      <stop offset="1" stop-color="#0069b4"/>
    </linearGradient>
    <linearGradient id="linear-gradient-3" y1="0.5" x2="1" y2="0.5" gradientUnits="objectBoundingBox">
      <stop offset="0" stop-color="#005b9b"/>
      <stop offset="1" stop-color="#005691"/>
    </linearGradient>
    <linearGradient id="linear-gradient-4" x1="0.788" y1="0.428" x2="0.207" y2="0.526" gradientUnits="objectBoundingBox">
      <stop offset="0" stop-color="#32a9e3"/>
      <stop offset="0.233" stop-color="#2ba0dc"/>
      <stop offset="0.609" stop-color="#1888cb"/>
      <stop offset="1" stop-color="#0069b4"/>
    </linearGradient>
    <linearGradient id="linear-gradient-5" x1="0.712" y1="0.547" x2="0.884" y2="0.576" gradientUnits="objectBoundingBox">
      <stop offset="0" stop-color="#32a9e3"/>
      <stop offset="0.193" stop-color="#2ca0da"/>
      <stop offset="0.504" stop-color="#1e88c2"/>
      <stop offset="0.893" stop-color="#07619c"/>
      <stop offset="1" stop-color="#005691"/>
    </linearGradient>
    <linearGradient id="linear-gradient-6" x1="0.581" y1="0.602" x2="0.409" y2="0.378" gradientUnits="objectBoundingBox">
      <stop offset="0" stop-color="#2b96c7"/>
      <stop offset="0.247" stop-color="#248dc0"/>
      <stop offset="0.645" stop-color="#1375ae"/>
      <stop offset="1" stop-color="#005b9b"/>
    </linearGradient>
    <linearGradient id="linear-gradient-7" x1="0.396" y1="0.441" x2="0.647" y2="0.54" gradientUnits="objectBoundingBox">
      <stop offset="0" stop-color="#32a9e3"/>
      <stop offset="0.182" stop-color="#2da0da"/>
      <stop offset="0.475" stop-color="#1f89c2"/>
      <stop offset="0.842" stop-color="#0a639b"/>
      <stop offset="1" stop-color="#005189"/>
    </linearGradient>
    <linearGradient id="linear-gradient-8" x1="0.959" y1="0.189" x2="0.736" y2="0.368" gradientUnits="objectBoundingBox">
      <stop offset="0" stop-color="#32a9e3"/>
      <stop offset="0.202" stop-color="#2ca0da"/>
      <stop offset="0.527" stop-color="#1d88c4"/>
      <stop offset="0.934" stop-color="#0461a1"/>
      <stop offset="1" stop-color="#005b9b"/>
    </linearGradient>
    <linearGradient id="linear-gradient-9" x1="0.281" y1="0.32" x2="0.347" y2="0.388" gradientUnits="objectBoundingBox">
      <stop offset="0" stop-color="#32a9e3"/>
      <stop offset="0.391" stop-color="#1b80ba"/>
      <stop offset="0.787" stop-color="#075e96"/>
      <stop offset="1" stop-color="#005189"/>
    </linearGradient>
    <linearGradient id="linear-gradient-10" y1="0.5" x2="1" y2="0.5" gradientUnits="objectBoundingBox">
      <stop offset="0" stop-color="#9b0c4a"/>
      <stop offset="0.243" stop-color="#a81f58"/>
      <stop offset="0.736" stop-color="#c04372"/>
      <stop offset="1" stop-color="#ca517c"/>
    </linearGradient>
    <linearGradient id="linear-gradient-11" y1="0.5" x2="1" y2="0.5" gradientUnits="objectBoundingBox">
      <stop offset="0" stop-color="#8d0d45"/>
      <stop offset="1" stop-color="#c43f71"/>
    </linearGradient>
    <linearGradient id="linear-gradient-12" x1="0.475" y1="0.44" x2="0.572" y2="0.578" xlink:href="#linear-gradient-10"/>
    <linearGradient id="linear-gradient-13" x1="0.218" y1="0.346" x2="0.577" y2="0.685" gradientUnits="objectBoundingBox">
      <stop offset="0" stop-color="#8d0d45"/>
      <stop offset="0.234" stop-color="#9d1f54"/>
      <stop offset="0.733" stop-color="#bd4371"/>
      <stop offset="1" stop-color="#ca517c"/>
    </linearGradient>
    <linearGradient id="linear-gradient-14" x1="0.82" y1="0.283" x2="1.006" y2="0.155" gradientUnits="objectBoundingBox">
      <stop offset="0" stop-color="#ca517c"/>
      <stop offset="0.243" stop-color="#bc3d6d"/>
      <stop offset="0.736" stop-color="#a41953"/>
      <stop offset="1" stop-color="#9b0c4a"/>
    </linearGradient>
    <linearGradient id="linear-gradient-15" x1="0.98" y1="0.694" x2="1.13" y2="0.78" xlink:href="#linear-gradient-14"/>
    <linearGradient id="linear-gradient-16" x1="0.307" y1="0.243" x2="0.171" y2="0.116" gradientUnits="objectBoundingBox">
      <stop offset="0" stop-color="#8d0d45"/>
      <stop offset="0.362" stop-color="#a83061"/>
      <stop offset="0.777" stop-color="#c2547d"/>
      <stop offset="1" stop-color="#cd6288"/>
    </linearGradient>
    <linearGradient id="linear-gradient-17" x1="0.276" y1="0.318" x2="0.322" y2="0.351" gradientUnits="objectBoundingBox">
      <stop offset="0" stop-color="#ca517c"/>
      <stop offset="0.234" stop-color="#b93e6c"/>
      <stop offset="0.733" stop-color="#991a4f"/>
      <stop offset="1" stop-color="#8d0d45"/>
    </linearGradient>
    <linearGradient id="linear-gradient-18" x1="0.441" y1="0.542" x2="0.164" y2="0.493" xlink:href="#linear-gradient-16"/>
    <linearGradient id="linear-gradient-19" x1="0.562" y1="0.66" x2="0.33" y2="-0.14" xlink:href="#linear-gradient-13"/>
    <linearGradient id="linear-gradient-20" x1="0.94" y1="0.926" x2="0.665" y2="0.717" gradientUnits="objectBoundingBox">
      <stop offset="0" stop-color="#ad2760"/>
      <stop offset="0.415" stop-color="#b12b63"/>
      <stop offset="0.845" stop-color="#bd376c"/>
      <stop offset="1" stop-color="#c43e72"/>
    </linearGradient>
    <linearGradient id="linear-gradient-21" x1="0.663" y1="0.865" x2="0.318" y2="0.234" gradientUnits="objectBoundingBox">
      <stop offset="0" stop-color="#cd6288"/>
      <stop offset="0.362" stop-color="#b13e6b"/>
      <stop offset="0.777" stop-color="#971a4f"/>
      <stop offset="1" stop-color="#8d0d45"/>
    </linearGradient>
    <linearGradient id="linear-gradient-22" x1="0.551" y1="0.454" x2="0.933" y2="0.112" xlink:href="#linear-gradient-21"/>
    <linearGradient id="linear-gradient-23" x1="0.263" y1="0.426" x2="0.321" y2="0.442" xlink:href="#linear-gradient-21"/>
    <linearGradient id="linear-gradient-24" y1="0.5" x2="1" y2="0.5" gradientUnits="objectBoundingBox">
      <stop offset="0" stop-color="#ad2760"/>
      <stop offset="0.505" stop-color="#9a1750"/>
      <stop offset="1" stop-color="#8d0d45"/>
    </linearGradient>
    <linearGradient id="linear-gradient-25" x1="0.571" y1="0.646" x2="0.697" y2="0.746" gradientUnits="objectBoundingBox">
      <stop offset="0" stop-color="#669f30"/>
      <stop offset="1" stop-color="#96b33f"/>
    </linearGradient>
    <linearGradient id="linear-gradient-26" x1="0.593" y1="0.483" x2="0.736" y2="0.421" xlink:href="#linear-gradient-25"/>
    <linearGradient id="linear-gradient-27" x1="0.488" y1="0.597" x2="0.743" y2="1.046" gradientUnits="objectBoundingBox">
      <stop offset="0" stop-color="#669f30"/>
      <stop offset="0.421" stop-color="#77a635"/>
      <stop offset="1" stop-color="#96b33f"/>
    </linearGradient>
    <linearGradient id="linear-gradient-28" x1="0.634" y1="0.624" x2="0.75" y2="0.683" xlink:href="#linear-gradient-25"/>
    <linearGradient id="linear-gradient-29" x1="0.813" y1="0.634" x2="0.632" y2="0.562" gradientUnits="objectBoundingBox">
      <stop offset="0" stop-color="#669f30"/>
      <stop offset="0.277" stop-color="#6da232"/>
      <stop offset="0.7" stop-color="#82ab39"/>
      <stop offset="1" stop-color="#96b33f"/>
    </linearGradient>
    <linearGradient id="linear-gradient-30" y1="0.5" x2="1" y2="0.5" gradientUnits="objectBoundingBox">
      <stop offset="0.093" stop-color="#57862f"/>
      <stop offset="0.83" stop-color="#669f30"/>
    </linearGradient>
    <linearGradient id="linear-gradient-31" y1="0.5" x2="1" y2="0.5" gradientUnits="objectBoundingBox">
      <stop offset="0.038" stop-color="#57862f"/>
      <stop offset="0.04" stop-color="#57862f"/>
      <stop offset="0.273" stop-color="#5a8b2f"/>
      <stop offset="0.831" stop-color="#609430"/>
    </linearGradient>
    <linearGradient id="linear-gradient-32" y1="0.5" x2="1" y2="0.5" gradientUnits="objectBoundingBox">
      <stop offset="0" stop-color="#96b33f"/>
      <stop offset="0.375" stop-color="#93b13e"/>
      <stop offset="0.59" stop-color="#8bac3c"/>
      <stop offset="0.764" stop-color="#7da338"/>
      <stop offset="0.915" stop-color="#699733"/>
      <stop offset="1" stop-color="#5b8e30"/>
    </linearGradient>
    <linearGradient id="linear-gradient-33" x1="0.24" y1="0.855" x2="0.793" y2="0.23" gradientUnits="objectBoundingBox">
      <stop offset="0.011" stop-color="#5b8e30"/>
      <stop offset="0.182" stop-color="#709734"/>
      <stop offset="0.351" stop-color="#7e9d37"/>
      <stop offset="0.5" stop-color="#839f39"/>
      <stop offset="0.669" stop-color="#7e9d37"/>
      <stop offset="0.838" stop-color="#729934"/>
      <stop offset="1" stop-color="#609430"/>
    </linearGradient>
    <linearGradient id="linear-gradient-34" x1="0.928" y1="0.522" x2="0.283" y2="0.027" gradientUnits="objectBoundingBox">
      <stop offset="0" stop-color="#5b8e30"/>
      <stop offset="0.105" stop-color="#6c9834"/>
      <stop offset="0.299" stop-color="#96b33f"/>
      <stop offset="0.665" stop-color="#5e9030"/>
      <stop offset="0.883" stop-color="#81a639"/>
      <stop offset="1" stop-color="#96b33f"/>
    </linearGradient>
    <linearGradient id="linear-gradient-35" y1="0.5" x2="1" y2="0.5" gradientUnits="objectBoundingBox">
      <stop offset="0" stop-color="#669f30"/>
      <stop offset="0.291" stop-color="#6fa232"/>
      <stop offset="0.767" stop-color="#87ac3a"/>
      <stop offset="1" stop-color="#96b33f"/>
    </linearGradient>
    <linearGradient id="linear-gradient-36" x1="0.462" y1="0.469" x2="0.677" y2="0.861" gradientUnits="objectBoundingBox">
      <stop offset="0" stop-color="#5b8e30"/>
      <stop offset="0.088" stop-color="#679533"/>
      <stop offset="0.351" stop-color="#89ab3b"/>
      <stop offset="0.495" stop-color="#96b33f"/>
    </linearGradient>
    <linearGradient id="linear-gradient-37" x1="-2.12" y1="-2.752" x2="0.221" y2="0.137" xlink:href="#linear-gradient-25"/>
    <linearGradient id="linear-gradient-38" x1="0.21" y1="0.137" x2="0.145" y2="0.03" gradientUnits="objectBoundingBox">
      <stop offset="0" stop-color="#669f30"/>
      <stop offset="0.428" stop-color="#82ab3f"/>
      <stop offset="0.813" stop-color="#9fb94f"/>
    </linearGradient>
    <linearGradient id="linear-gradient-39" x1="0.512" y1="0.55" x2="0.49" y2="0.455" gradientUnits="objectBoundingBox">
      <stop offset="0" stop-color="#609430"/>
      <stop offset="0.509" stop-color="#619530"/>
      <stop offset="0.692" stop-color="#689832"/>
      <stop offset="0.823" stop-color="#749f35"/>
      <stop offset="0.928" stop-color="#85a93a"/>
      <stop offset="1" stop-color="#96b33f"/>
    </linearGradient>
  </defs>
  <g id="Group_11486" data-name="Group 11486" transform="translate(-28.303 -30.464)">
    <g id="Group_9223" data-name="Group 9223" transform="translate(28.482 30.643)">
      <path id="Path_10276" data-name="Path 10276" d="M57.637,52.39c-.633.016-.828-.344-.855-.67a2.015,2.015,0,0,1,.163-.892c-1.257-.328-2.655-.72-4.171-1.184a1.974,1.974,0,0,1-1.127.393c-.1-.013-.155-.1.058-.406.027-.04.093-.132.186-.262-1.088-.345-2.232-.725-3.419-1.145-2.3,2.113-4.95,4.23-6.4,4.23-.581,0-1.123-.388-1.123-1.315a12.81,12.81,0,0,1,2.414-4.866q-1.8-.741-3.684-1.6c-2.836,3.014-4.149,5.747-4.149,7.694,0,2.478,2.317,2.788,3.529,2.788,3.2,0,4.62-1.476,5.251-1.476s-.377,1.5-1.328,2.1C35.054,60.574,28.537,64.7,28.537,68.519c0,1.728,1.6,1.842,2.807,1.842s7.147-.759,16.229-14.836A6.335,6.335,0,0,1,49.372,54a17.862,17.862,0,0,1,3.265-2.068c.427,0,.412.184.4.376a7.959,7.959,0,0,0-.315,1.638,1.849,1.849,0,0,0,2,1.615c2.759,0,4.772-1.965,6.425-3.737-.547-.115-1.171-.253-1.866-.416A3.831,3.831,0,0,1,57.637,52.39Zm-24.5,15.318a.714.714,0,0,1-.794-.813c0-1.7,5.888-6.141,6.588-6.147.18,0,.227.07.227.213C39.167,62.319,34.866,67.707,33.138,67.707Zm31.4-15.155c0,1.187.394,2.887,3.154,2.887a5.968,5.968,0,0,0,4.118-2.017,69.084,69.084,0,0,1-7.271-.959C64.539,52.493,64.537,52.523,64.537,52.553Zm20.256.528c-.006.995.239,2.586,1.928,2.586,3.334,0,7.481-4.224,7.679-4.255.138-.022.161.036.161.17,0,.151-.47,1.823-5.344,7.743s-7.236,8.24-7.236,9.518a1.691,1.691,0,0,0,1.587,1.74c.5,0,2.63-.115,7.7-8.356,3.618-5.883,5.325-9.512,7.246-12.436C95.046,51.3,90.685,52.283,84.793,53.08Zm-10.007.5c-.361.548-.668,1.013-.878,1.341,0,0-.259.311.128.311h3.611a.618.618,0,0,0,.438-.311c.044-.062.414-.626.885-1.35Q76.947,53.649,74.786,53.584Z" transform="translate(-28.537 -33.986)" fill="url(#radial-gradient)"/>
      <path id="Path_10277" data-name="Path 10277" d="M105.353,39.346a3.89,3.89,0,0,1,2.438-2.535,1.05,1.05,0,0,1,.909,1.1,2.874,2.874,0,0,1-2.089,2.475C106.3,40.39,105.353,39.964,105.353,39.346ZM57.862,46.4c1.236.245,2.484.461,3.739.636a7.575,7.575,0,0,0-1.23,1.943c-1.257-.328-2.655-.72-4.171-1.184a7.343,7.343,0,0,0,1.117-.865Q57.6,46.656,57.862,46.4Zm48.671-4.558c0,.348-.386,1.121-1.9,2.592a24.7,24.7,0,0,0-2.7,3.506c-3.467,1.51-7.828,2.494-13.72,3.291,0-.122.006-.236.014-.336a11.091,11.091,0,0,1,.335-1.508c0-.115-.019-.252-.174-.252a6.1,6.1,0,0,1-1.336.3c-2.115,0-1.418-1.445-1.986-1.445a.525.525,0,0,0-.412.257c-.068.1-1.354,2.082-2.262,3.474q-2.024.073-4.185.009c.983-1.5,2.358-3.624,3.218-5.314a55.078,55.078,0,0,0,7.763-2.169c-.009.12-.013.244-.013.376,0,1.237.385,1.857.714,1.857a1.87,1.87,0,0,0,1.131-.789c3.513-4.2,6.332-4.67,7.345-4.67a1,1,0,0,1,.965,1.127c0,2.073-3.662,5.116-6,5.8-.635.187-.969.582-.969,1.006a1.072,1.072,0,0,0,1.2,1.161c2.476,0,5.223-3.327,7.506-5.8s4.1-3.364,4.643-3.364A.819.819,0,0,1,106.533,41.842ZM93.672,46.157a.287.287,0,0,0,.3.277c.724,0,3-2.064,3-2.937,0-.128-.149-.213-.257-.213C95.95,43.285,93.672,45.477,93.672,46.157ZM64.643,47.376q1.215.1,2.456.158a15.78,15.78,0,0,0-2.53,2.44c-.547-.115-1.171-.253-1.866-.416A8.936,8.936,0,0,0,64.643,47.376Zm13.651-.41a15.978,15.978,0,0,1-3.058,4.607,69.091,69.091,0,0,1-7.271-.959A18.013,18.013,0,0,1,68.5,47.58q2.038.038,4.122-.062a4.329,4.329,0,0,0-.837,2.074.684.684,0,0,0,.772.688c1.484,0,2.72-1.454,3.59-3.04Q77.219,47.125,78.294,46.966ZM43.709,42.2c1.185.455,2.43.911,3.729,1.353q-.344.439-.649.87-1.8-.741-3.684-1.6C43.3,42.618,43.5,42.411,43.709,42.2Zm12.651,3.88c-.439.6-.821,1.13-1.042,1.439-1.088-.345-2.232-.725-3.419-1.145.405-.371.8-.742,1.172-1.1C54.15,45.562,55.248,45.835,56.36,46.081Z" transform="translate(-31.964 -32.136)" fill="url(#radial-gradient-2)"/>
      <path id="Path_10278" data-name="Path 10278" d="M60.036,39.959c0-.245-.347-.444-.773-.444a5.1,5.1,0,0,0-3.038,1.373c-.417.4-1.557,1.592-2.969,2.948,1.079.288,2.177.562,3.289.808,1-1.374,2.294-3.13,2.641-3.523C59.746,40.481,60.036,40.172,60.036,39.959Zm3.181-5.269c.134.019.18-.006.238-.1.081-.134,2.052-3.638,2.052-3.638a.067.067,0,0,0-.034-.111,3.387,3.387,0,0,0-1.11-.139c-2.951,0-9.387,1.464-15.861,6.171a38.536,38.536,0,0,0-4.607,3.894c1.185.455,2.43.911,3.729,1.353a22.444,22.444,0,0,1,2.451-2.661c3.656-3.367,7.892-5.01,10.523-5.01A19.111,19.111,0,0,1,63.217,34.69ZM89.71,39.455c-.986,0-2.917,2.361-3.264,2.361-.284,0-.61-1.081-.928-1.509-.466-.619-1.1-.773-2.923-.773-.909,0-1.431.076-2.245.076-.924,0-1.141-.038-1.314-.445s-2.883-7.544-9.055-7.544c-1.374,0-2.824.6-2.824,2.456s1.112,4.4,5.786,5.958c.115.038.232.054.232.149,0,.2-2.206,3.178-4.2,3.526a.341.341,0,0,1-.387-.367,7.879,7.879,0,0,0,.31-1.78c0-.948-.291-2.283-2.089-2.283-1.738,0-3.73.831-8.761,5.68,1.236.246,2.484.461,3.739.636,1.566-1.9,3.962-3.77,4.569-3.784.376-.011.529.149.542.311.056.669-.9,1.138-1.5,1.569-.7.5-.921.661-.852,1.084.041.232.376.294.418.7a.907.907,0,0,1-.133.458q1.215.1,2.456.158a1.931,1.931,0,0,1,1.026-.35c.285,0,.393.125.393.306a.5.5,0,0,1-.013.09q2.039.038,4.122-.062A9.877,9.877,0,0,1,75,43.569c.8-.483,1.237-.959,1.229-1.231s-.578-.637-.636-.9c-.067-.309.183-.476.739-.336.8.2,1.374.226,1.391.811A11.361,11.361,0,0,1,76.336,45.8q1.069-.115,2.144-.274a10.636,10.636,0,0,0,1.075-3.7.326.326,0,0,1,.363-.371c.309,0,1.166.091,1.546.128a1.083,1.083,0,0,1,.957,1.152,6.185,6.185,0,0,1-.8,2.244,55.076,55.076,0,0,0,7.763-2.169c.109-1.637.915-2.3.915-2.843C90.3,39.6,90.143,39.455,89.71,39.455Zm-12.877.117c-1.367,0-6.581-2.031-6.581-4.623A1.236,1.236,0,0,1,71.6,33.654c3.739,0,5.6,5.317,5.6,5.655C77.2,39.477,77.1,39.572,76.833,39.572Z" transform="translate(-32.15 -30.698)" fill="url(#radial-gradient-3)"/>
    </g>
    <path id="Path_10279" data-name="Path 10279" d="M61.15,49.738a6.594,6.594,0,0,1-1.221.921l.452.139a8.181,8.181,0,0,0,1.017-.806c.219-.213.429-.417.636-.616q-.213-.039-.426-.084Z" transform="translate(-7.439 -4.429)" fill="#32a9e3"/>
    <path id="Path_10280" data-name="Path 10280" d="M100.412,52.34a1.257,1.257,0,0,0-.347.09,3.145,3.145,0,0,1-.989.213c-1.258,0-1.4-.512-1.513-.924-.065-.231-.145-.521-.473-.521a.7.7,0,0,0-.561.337l-.778,1.195c-.452.694-1.065,1.637-1.554,2.386l.435-.015c.4-.619.9-1.383,1.418-2.177l.775-1.192a.363.363,0,0,1,.265-.179c.044,0,.064.022.129.258.122.444.328,1.186,1.857,1.186a3.468,3.468,0,0,0,1.1-.232,2.086,2.086,0,0,1,.223-.068.582.582,0,0,1,0,.071,1.694,1.694,0,0,1-.089.339,4.57,4.57,0,0,0-.246,1.159c-.008.117-.012.242-.014.371l.358-.047c0-.109,0-.212.011-.3a4.231,4.231,0,0,1,.23-1.071,1.627,1.627,0,0,0,.106-.448C100.764,52.384,100.518,52.34,100.412,52.34Z" transform="translate(-15.5 -4.877)" fill="url(#linear-gradient)"/>
    <path id="Path_10281" data-name="Path 10281" d="M84.7,50.461a8.677,8.677,0,0,1-1.269,1.761,3.007,3.007,0,0,1-2.109,1.08.519.519,0,0,1-.593-.516,4.364,4.364,0,0,1,.874-2.08c-.145.009-.291.016-.436.022a4.288,4.288,0,0,0-.795,2.069.86.86,0,0,0,.951.861,3.35,3.35,0,0,0,2.365-1.188,9.461,9.461,0,0,0,1.444-2.057Q84.919,50.439,84.7,50.461Z" transform="translate(-12.249 -4.693)" fill="url(#linear-gradient-2)"/>
    <path id="Path_10282" data-name="Path 10282" d="M65.456,52.068l.346.091A7.535,7.535,0,0,1,67.067,50.2c-.139-.018-.277-.037-.415-.056A7.542,7.542,0,0,0,65.456,52.068Z" transform="translate(-8.739 -4.629)" fill="#0069b4"/>
    <path id="Path_10283" data-name="Path 10283" d="M54.356,48.894l.377.133c.393-.363.788-.737,1.181-1.116l-.4-.106C55.145,48.161,54.755,48.528,54.356,48.894Z" transform="translate(-6.128 -4.079)" fill="#32a9e3"/>
    <path id="Path_10284" data-name="Path 10284" d="M70.41,50.6a5.386,5.386,0,0,1-.665.891,11.8,11.8,0,0,1-1.3,1.256c.148.034.291.069.434.1a13.068,13.068,0,0,0,1.135-1.12,5.018,5.018,0,0,0,.781-1.1Z" transform="translate(-9.442 -4.737)" fill="#32a9e3"/>
    <path id="Path_10285" data-name="Path 10285" d="M71.357,52.734c-.148.159-.3.323-.454.49l.407.086c.1-.112.208-.225.309-.336a10.291,10.291,0,0,1,2.352-2.134c-.208-.007-.418-.016-.626-.027A14.714,14.714,0,0,0,71.357,52.734Z" transform="translate(-10.021 -4.787)" fill="#1772ba"/>
    <path id="Path_10286" data-name="Path 10286" d="M47.7,46.407l.34.141c.206-.291.427-.584.661-.879l-.359-.122C48.113,45.837,47.9,46.125,47.7,46.407Z" transform="translate(-4.562 -3.548)" fill="#005b9b"/>
    <path id="Path_10287" data-name="Path 10287" d="M107.647,50.6c0-.368.315-.68.841-.835,2.307-.681,6.124-3.755,6.124-5.974h-.356c0,2.011-3.66,4.981-5.869,5.633-.686.2-1.094.642-1.094,1.176Z" transform="translate(-18.58 -3.135)" fill="url(#linear-gradient-3)"/>
    <path id="Path_10288" data-name="Path 10288" d="M106.432,46.25c-.461.451-.936.966-1.427,1.551a1.762,1.762,0,0,1-.993.726c-.181,0-.538-.507-.538-1.679,0-.157.007-.3.019-.444l-.366.133c-.005.1-.01.2-.01.311,0,1.4.464,2.034.894,2.034.483,0,1-.534,1.267-.853.447-.534.883-1.007,1.3-1.426Z" transform="translate(-17.598 -3.713)" fill="url(#linear-gradient-4)"/>
    <path id="Path_10289" data-name="Path 10289" d="M107.6,45.624c2.951-2.925,5.214-3.18,5.9-3.18.751,0,.788.789.788.948h.356a1.173,1.173,0,0,0-1.144-1.3c-.914,0-3.159.343-6.054,3.183Z" transform="translate(-18.618 -2.734)" fill="url(#linear-gradient-5)"/>
    <path id="Path_10290" data-name="Path 10290" d="M112.648,45.432a.427.427,0,0,0-.434-.39c-.843,0-3.22,2.253-3.22,3.051a.462.462,0,0,0,.476.455C110.306,48.548,112.648,46.414,112.648,45.432Zm-3.3,2.661c0-.6,2.224-2.7,2.866-2.7a.117.117,0,0,1,.08.04c0,.763-2.19,2.755-2.824,2.755C109.419,48.193,109.348,48.162,109.348,48.093Z" transform="translate(-18.98 -3.429)" fill="url(#linear-gradient-6)"/>
    <path id="Path_10291" data-name="Path 10291" d="M126.881,36.579c-.879,0-2.616,1.8-2.616,2.711,0,.736,1.022,1.223,1.435,1.223a3.041,3.041,0,0,0,2.268-2.654A1.218,1.218,0,0,0,126.881,36.579Zm-1.18,3.579c-.265,0-1.079-.39-1.079-.868a3.825,3.825,0,0,1,2.259-2.355c.431,0,.732.486.732.924A2.726,2.726,0,0,1,125.7,40.158Z" transform="translate(-22.573 -1.438)" fill="url(#linear-gradient-7)"/>
    <path id="Path_10292" data-name="Path 10292" d="M88.736,54.668c.141.006.28.011.417.014a58.821,58.821,0,0,0,3.232-5.366c-.148.03-.3.061-.444.089C91.054,51.119,89.661,53.261,88.736,54.668Z" transform="translate(-14.215 -4.434)" fill="#49afe5"/>
    <path id="Path_10293" data-name="Path 10293" d="M42.877,44.381c.112.054.226.106.338.155.2-.208.4-.418.618-.631-.121-.046-.241-.092-.36-.139C43.267,43.973,43.067,44.179,42.877,44.381Z" transform="translate(-3.428 -3.129)" fill="#32a9e3"/>
    <path id="Path_10294" data-name="Path 10294" d="M59.872,48.876c-.444.61-.825,1.136-1.032,1.423l.358.114c.232-.322.616-.853,1.053-1.452Z" transform="translate(-7.183 -4.331)" fill="#0060a2"/>
    <path id="Path_10295" data-name="Path 10295" d="M75.83,51.253a14.623,14.623,0,0,0-.45,2.636c.119.022.237.046.355.067a13.865,13.865,0,0,1,.441-2.619c.055-.233.086-.363.1-.445-.122,0-.241,0-.361-.008C75.9,50.974,75.863,51.115,75.83,51.253Z" transform="translate(-11.074 -4.803)" fill="#32a9e3"/>
    <path id="Path_10296" data-name="Path 10296" d="M87.895,50.109a18.463,18.463,0,0,1-1.2,2.209,13.334,13.334,0,0,1-1.885,2.349c.151.011.3.027.456.037a16.524,16.524,0,0,0,3.05-4.655Z" transform="translate(-13.291 -4.607)" fill="#1772ba"/>
    <path id="Path_10297" data-name="Path 10297" d="M107.292,50.179a1.222,1.222,0,0,0,1.18,1.328,4.006,4.006,0,0,0,2.112-.534,21.859,21.859,0,0,0,5.018-4.544l.7-.772c2.282-2.475,4.053-3.308,4.512-3.308v-.356c-.626,0-2.476.93-4.774,3.424l-.707.773c-2.118,2.331-4.521,4.973-6.667,4.973a.9.9,0,0,1-1.023-.984Z" transform="translate(-18.58 -2.712)" fill="url(#linear-gradient-8)"/>
    <path id="Path_10298" data-name="Path 10298" d="M123.727,42.348a.643.643,0,0,1,.634.712c0,.157-.132.8-1.842,2.465a25.257,25.257,0,0,0-2.863,3.758c.2-.087.4-.174.6-.26a24.344,24.344,0,0,1,2.515-3.244c1.276-1.243,1.95-2.182,1.95-2.719a1,1,0,0,0-.99-1.068Z" transform="translate(-21.488 -2.712)" fill="url(#linear-gradient-9)"/>
    <path id="Path_10299" data-name="Path 10299" d="M66.262,54.09c-.417.01-.643-.161-.671-.507a1.886,1.886,0,0,1,.158-.831l-.346-.091a2.209,2.209,0,0,0-.167.952.9.9,0,0,0,1.035.832,4.1,4.1,0,0,0,1.852-1.109c-.142-.033-.285-.068-.434-.1A3.562,3.562,0,0,1,66.262,54.09Z" transform="translate(-8.686 -5.221)" fill="url(#linear-gradient-10)"/>
    <path id="Path_10300" data-name="Path 10300" d="M58.431,51.482a.264.264,0,0,0,.218.157,2.315,2.315,0,0,0,1.374-.5L59.571,51a1.888,1.888,0,0,1-.773.287.978.978,0,0,1,.078-.127c.028-.04.1-.149.22-.307l-.358-.114c-.076.109-.132.185-.154.217C58.421,51.188,58.373,51.35,58.431,51.482Z" transform="translate(-7.081 -4.769)" fill="url(#linear-gradient-11)"/>
    <path id="Path_10301" data-name="Path 10301" d="M40.045,65.456c-.464,0-2.267,1.292-3.668,2.482-1.156.983-3.1,2.787-3.1,3.844a.886.886,0,0,0,.973.99c.8,0,1.947-.979,2.765-1.8,1.626-1.635,3.44-4.173,3.435-5.126a.4.4,0,0,0-.1-.29A.417.417,0,0,0,40.045,65.456Zm.053.395c0,.769-1.648,3.178-3.332,4.87a4.982,4.982,0,0,1-2.512,1.7c-.426,0-.616-.2-.616-.634,0-1.57,5.739-5.952,6.412-5.97l.045,0,0,.032Z" transform="translate(-1.171 -8.231)" fill="url(#linear-gradient-12)"/>
    <path id="Path_10302" data-name="Path 10302" d="M45.833,53.1c1.48,0,4-1.956,6.589-4.342l-.377-.133c-2.258,2.069-4.826,4.119-6.212,4.119-.592,0-.945-.424-.945-1.137a12.694,12.694,0,0,1,2.406-4.8l-.34-.141a12.655,12.655,0,0,0-2.421,4.937A1.311,1.311,0,0,0,45.833,53.1Z" transform="translate(-3.818 -3.813)" fill="url(#linear-gradient-13)"/>
    <path id="_Path_31.12" data-name="&lt;Path&gt;31.12" d="M28.659,71.888c0-3.625,5.952-7.5,14.359-12.584l-.186-.3C34.326,64.142,28.3,68.077,28.3,71.888Z" transform="translate(0 -6.713)" fill="url(#linear-gradient-14)"/>
    <path id="_Path_-54.16" data-name="&lt;Path&gt;-54.16" d="M41.155,54.955c-1.253,0-3.35-.339-3.35-2.608,0-1.776,1.164-4.48,4.134-7.622-.112-.05-.226-.1-.338-.155-2.983,3.189-4.152,5.949-4.152,7.777,0,1.884,1.351,2.964,3.707,2.964Z" transform="translate(-2.151 -3.318)" fill="url(#linear-gradient-15)"/>
    <path id="_Path_Godrej_Red_Dark_V" data-name="&lt;Path&gt; Godrej Red Dark V" d="M46.31,58.65c.788-.5,1.738-1.688,1.594-2.185a.346.346,0,0,0-.358-.244,2.365,2.365,0,0,0-.918.352A8.7,8.7,0,0,1,42.295,57.7v.356a9.021,9.021,0,0,0,4.5-1.162,2.571,2.571,0,0,1,.754-.317c.019,0,.027.013.027.035a3.613,3.613,0,0,1-1.448,1.74" transform="translate(-3.291 -6.059)" fill="#9b0c4a"/>
    <path id="_Path_157.25" data-name="&lt;Path&gt;157.25" d="M59.923,56.13A2.034,2.034,0,0,0,62.1,57.923c2.874,0,4.95-2.066,6.628-3.871l-.407-.086c-1.6,1.715-3.579,3.6-6.221,3.6a1.673,1.673,0,0,1-1.82-1.437Z" transform="translate(-7.438 -5.528)" fill="url(#linear-gradient-16)"/>
    <path id="_Path_-28.89" data-name="&lt;Path&gt;-28.89" d="M28.3,70.7c0,2.021,2.018,2.021,2.986,2.021.656,0,2.481-.213,5.266-2.172,3.511-2.47,7.249-6.759,11.111-12.745A4.522,4.522,0,0,1,49,56.61l.42-.289.158-.115c2.2-1.587,2.809-1.894,3-1.92.158-.022.2.015.208.024l.252-.251c-.112-.116-.219-.13-.46-.13-.33,0-1.229.558-3.211,1.988l-.158.114-.411.287a4.749,4.749,0,0,0-1.433,1.289C38.307,71.647,32.385,72.359,31.289,72.359c-1.579,0-2.63-.282-2.63-1.663Z" transform="translate(0 -5.52)" fill="url(#linear-gradient-17)"/>
    <path id="_Path_175.84" data-name="&lt;Path&gt;175.84" d="M78.709,57.645c-2,0-2.977-.886-2.977-2.708,0-.018,0-.037,0-.057-.118-.021-.236-.044-.355-.067,0,.041,0,.083,0,.123,0,2,1.153,3.064,3.333,3.064a6.234,6.234,0,0,0,4.335-2.177c-.151-.01-.305-.025-.456-.037A5.734,5.734,0,0,1,78.709,57.645Z" transform="translate(-11.073 -5.728)" fill="url(#linear-gradient-18)"/>
    <path id="_Path_130.97" data-name="&lt;Path&gt;130.97" d="M91.814,57.556c-.124.173-.233.235-.294.235H87.906c0-.007.008-.013.011-.018l.006-.008.6-.916c.108-.166.223-.34.343-.525q-.205,0-.417-.014c-.078.12-.154.234-.225.342,0,0-.585.9-.591.906a.5.5,0,0,0-.116.29.264.264,0,0,0,.027.118c.038.083.133.18.364.18H91.52a.763.763,0,0,0,.584-.384c.047-.067.421-.639.957-1.461l-.435.015C92.192,56.984,91.854,57.5,91.814,57.556Z" transform="translate(-13.929 -6.078)" fill="url(#linear-gradient-19)"/>
    <path id="_Path_135" data-name="&lt;Path&gt;135" d="M103.967,58.066a1.553,1.553,0,0,1-1.183-.456,2.931,2.931,0,0,1-.564-1.975l-.358.047V55.7a3.148,3.148,0,0,0,.662,2.15,1.894,1.894,0,0,0,1.443.568Z" transform="translate(-17.303 -5.921)" fill="url(#linear-gradient-20)"/>
    <path id="_Path_100.1" data-name="&lt;Path&gt;100.1" d="M60.279,56.162a3.807,3.807,0,0,1,.2-1.112,3.165,3.165,0,0,0,.111-.463l.008-.1a.5.5,0,0,0-.117-.39l-.124.122-.128.128a.142.142,0,0,1,.028.109.962.962,0,0,1-.027.137c-.01.044-.044.188-.093.352a4.225,4.225,0,0,0-.213,1.214Z" transform="translate(-7.438 -5.56)" fill="url(#linear-gradient-21)"/>
    <path id="_Path_51.07" data-name="&lt;Path&gt;51.07" d="M98.8,72.775a1.57,1.57,0,0,1-.263-.909c0-.873,1.28-2.383,3.832-5.393.967-1.143,2.064-2.435,3.362-4.013,1.738-2.109,2.915-3.679,3.712-4.834l-.369-.093c-.785,1.131-1.936,2.66-3.618,4.7-1.3,1.575-2.392,2.869-3.359,4.008-2.689,3.173-3.916,4.622-3.916,5.624a1.9,1.9,0,0,0,.4,1.2Z" transform="translate(-16.438 -6.367)" fill="url(#linear-gradient-22)"/>
    <path id="_Path_-19.14" data-name="&lt;Path&gt;-19.14" d="M98.7,71.576a1.882,1.882,0,0,0,1.368.716c1.74,0,4.454-2.92,7.851-8.442,1.857-3.021,3.289-5.556,4.55-7.795,1.221-2.166,1.861-3.393,2.852-4.869-.195.086-.395.173-.6.26-.9,1.4-1.464,2.481-2.565,4.435-1.26,2.234-2.688,4.767-4.542,7.781-4.427,7.2-6.629,8.273-7.548,8.273a1.551,1.551,0,0,1-1.145-.653Z" transform="translate(-16.56 -4.874)" fill="url(#linear-gradient-23)"/>
    <path id="_Path_0" data-name="&lt;Path&gt; 0" d="M110.96,56.616c1.646-2.383,1.673-3.012,1.673-3.021a.361.361,0,0,0-.1-.289.3.3,0,0,0-.265-.055c-.073.022-.141.057-.556.417-1.212,1.05-4.433,3.835-7.1,3.835v.356c2.8,0,6.092-2.85,7.333-3.923.118-.1.229-.2.31-.265a12.731,12.731,0,0,1-1.666,2.85Z" transform="translate(-17.95 -5.358)" fill="url(#linear-gradient-24)"/>
    <path id="Path_10303" data-name="Path 10303" d="M92.056,44.664l-.177-.018c-.442-.044-1.111-.112-1.388-.112a.5.5,0,0,0-.541.55,10.627,10.627,0,0,1-1.1,3.728l.417-.06A10.533,10.533,0,0,0,90.3,45.084c0-.151.042-.193.185-.193.258,0,.943.069,1.353.111l.177.018a.9.9,0,0,1,.8.974,6.385,6.385,0,0,1-.849,2.287c.148-.028.3-.059.444-.089a6.02,6.02,0,0,0,.762-2.2A1.26,1.26,0,0,0,92.056,44.664Z" transform="translate(-14.241 -3.31)" fill="url(#linear-gradient-25)"/>
    <path id="Path_10304" data-name="Path 10304" d="M79.649,34.331A1.4,1.4,0,0,0,78.125,35.8c0,2.759,5.347,4.8,6.758,4.8.476,0,.547-.277.547-.442C85.43,39.811,83.572,34.331,79.649,34.331Zm5.234,5.918c-1.254,0-6.4-2-6.4-4.446a1.061,1.061,0,0,1,1.168-1.117c3.549,0,5.4,5.122,5.425,5.482C85.074,40.206,85.074,40.249,84.883,40.249Z" transform="translate(-11.719 -0.91)" fill="url(#linear-gradient-26)"/>
    <path id="Path_10305" data-name="Path 10305" d="M75.413,50.14a2.316,2.316,0,0,0-1.318.515c.208.011.418.02.626.027a1.566,1.566,0,0,1,.692-.186c.214,0,.214.073.214.128a.784.784,0,0,1-.015.084c.12,0,.239.006.361.008a.564.564,0,0,0,.01-.092C75.984,50.511,75.943,50.14,75.413,50.14Z" transform="translate(-10.771 -4.628)" fill="url(#linear-gradient-27)"/>
    <path id="Path_10306" data-name="Path 10306" d="M83.918,46.849c.835-.5,1.326-1.023,1.315-1.388a1.065,1.065,0,0,0-.375-.6,1.243,1.243,0,0,1-.263-.336.13.13,0,0,1,.015-.122c.05-.049.213-.079.505,0l.358.084c.671.154.89.232.9.561a11.638,11.638,0,0,1-1.423,3.909q.215-.022.431-.047a11.154,11.154,0,0,0,1.347-3.872c-.019-.632-.556-.754-1.177-.9l-.349-.083c-.488-.123-.724-.018-.84.091a.474.474,0,0,0-.116.456,1.222,1.222,0,0,0,.354.506c.1.108.275.29.278.366,0,.145-.3.564-1.144,1.071a10.062,10.062,0,0,0-2.318,2.674c.145-.006.291-.013.436-.022A9.632,9.632,0,0,1,83.918,46.849Z" transform="translate(-12.493 -3.184)" fill="url(#linear-gradient-28)"/>
    <path id="Path_10307" data-name="Path 10307" d="M63.033,42.615c0-.389-.479-.623-.952-.623a5.29,5.29,0,0,0-3.161,1.423l-.652.654c-.578.584-1.426,1.44-2.4,2.368l.4.106c.766-.738,1.524-1.492,2.25-2.225l.646-.647a4.965,4.965,0,0,1,2.914-1.323c.35,0,.6.151.6.267Z" transform="translate(-6.485 -2.712)" fill="url(#linear-gradient-29)"/>
    <path id="Path_10308" data-name="Path 10308" d="M63.692,42.807c0,.128-.281.445-.669.887l-.138.155c-.356.407-1.689,2.215-2.7,3.6l.379.086c.993-1.362,2.252-3.071,2.584-3.449l.136-.155c.522-.592.759-.86.759-1.123Z" transform="translate(-7.501 -2.903)" fill="url(#linear-gradient-30)"/>
    <path id="Path_10309" data-name="Path 10309" d="M55.295,37.957a22.048,22.048,0,0,0-4.249,3.075,22.659,22.659,0,0,0-2.508,2.729l.359.122a22.212,22.212,0,0,1,2.391-2.59,21.749,21.749,0,0,1,4.169-3.022Z" transform="translate(-4.76 -1.763)" fill="url(#linear-gradient-31)"/>
    <path id="Path_10310" data-name="Path 10310" d="M73.122,46.094a.218.218,0,0,1-.068-.166,1.7,1.7,0,0,1,.068-.278,5.081,5.081,0,0,0,.241-1.5,3.132,3.132,0,0,0-.259-1.332,2.027,2.027,0,0,0-2.009-1.13c-1.865,0-3.953.967-8.971,5.815q.212.045.426.084c4.8-4.614,6.793-5.542,8.545-5.542a1.723,1.723,0,0,1,1.608.767,2.588,2.588,0,0,1,.3,1.338,4.78,4.78,0,0,1-.226,1.4,1.5,1.5,0,0,0-.083.377.576.576,0,0,0,.2.44Z" transform="translate(-7.956 -2.64)" fill="url(#linear-gradient-32)"/>
    <path id="Path_10311" data-name="Path 10311" d="M76.206,46.7a.488.488,0,0,0,.4.1c2.07-.363,4.345-3.378,4.345-3.7l-.392.043c-.311.519-2.248,3-4.016,3.309a.127.127,0,0,1-.109-.028Z" transform="translate(-11.268 -2.973)" fill="url(#linear-gradient-33)"/>
    <path id="Path_10312" data-name="Path 10312" d="M101.877,42.147a.753.753,0,0,0-.632-.231c-.691,0-1.676.925-2.469,1.67a6.527,6.527,0,0,1-.791.681,2.851,2.851,0,0,1-.4-.694,4.642,4.642,0,0,0-.4-.734c-.5-.664-1.156-.846-3.063-.846-.473,0-.841.021-1.2.041l.019.355c.352-.019.716-.04,1.179-.04,1.789,0,2.359.145,2.779.7a4.48,4.48,0,0,1,.359.674c.238.506.427.906.711.906.185,0,.405-.192,1.039-.786.668-.627,1.676-1.573,2.226-1.573.368,0,.407.1.407.336a1.661,1.661,0,0,1-.249.636,5.16,5.16,0,0,0-.671,2.274l.366-.133a4.785,4.785,0,0,1,.623-1.976,1.859,1.859,0,0,0,.288-.8A.727.727,0,0,0,101.877,42.147Z" transform="translate(-15.202 -2.694)" fill="url(#linear-gradient-34)"/>
    <path id="Path_10313" data-name="Path 10313" d="M92.154,41.979l-1.047.037c-.938,0-1.027-.047-1.151-.337l-.327.139c.228.532.6.553,1.478.553l1.066-.037Z" transform="translate(-14.425 -2.638)" fill="url(#linear-gradient-35)"/>
    <path id="Path_10314" data-name="Path 10314" d="M72.515,45.472c-.019-.226-.22-.488-.724-.474-.627.015-2.6,1.546-4.092,3.153-.065.071-.13.141-.193.211-.159.177-.323.369-.486.568.138.021.276.04.415.057.106-.127.217-.255.336-.389s.249-.274.377-.408c1.515-1.586,3.234-2.827,3.651-2.838.212,0,.352.053.361.149a.35.35,0,0,1,0,.04c0,.421-.561.789-1.055,1.117l-.374.252-.019.014c-.621.449-.92.664-.92,1.073a1.085,1.085,0,0,0,.016.171.61.61,0,0,0,.213.339.583.583,0,0,1,.184.269h.363a.878.878,0,0,0-.3-.524c-.065-.063-.1-.1-.111-.143-.048-.29.05-.383.762-.9l.019-.013.361-.245C71.9,46.563,72.569,46.121,72.515,45.472Z" transform="translate(-9.107 -3.419)" fill="url(#linear-gradient-36)"/>
    <path id="Path_10315" data-name="Path 10315" d="M71.163,50.023v.021a.924.924,0,0,1-.148.4l.383.032a.977.977,0,0,0,.119-.493.454.454,0,0,0-.008-.048h-.363A.443.443,0,0,1,71.163,50.023Z" transform="translate(-10.047 -4.581)" fill="url(#linear-gradient-37)"/>
    <path id="Path_10316" data-name="Path 10316" d="M86.273,39.262c-.73-1.781-3.55-7.591-9.193-7.591a2.764,2.764,0,0,0-2.8,1.527,2.88,2.88,0,0,0-.206,1.108c0,1.552.768,4.415,5.906,6.127l.065.021.011,0,.392-.043c0-.213-.2-.271-.3-.3L80.1,40.1c-4.927-1.643-5.664-4.333-5.664-5.79a2.494,2.494,0,0,1,.187-1,2.558,2.558,0,0,1,2.46-1.282c5.421,0,8.155,5.641,8.863,7.369l.028.067.327-.139Z" transform="translate(-10.767 -0.284)" fill="url(#linear-gradient-38)"/>
    <path id="Path_10317" data-name="Path 10317" d="M68.858,30.771a.253.253,0,0,0-.158-.148,2.961,2.961,0,0,0-.558-.114v.358a2.832,2.832,0,0,1,.32.059c-.7,1.242-1.928,3.424-1.988,3.525l-.015.022-.046,0-.081-.012a17.651,17.651,0,0,0-2.562-.235,14.2,14.2,0,0,0-6.4,1.982l.161.315a13.832,13.832,0,0,1,6.234-1.941,17.345,17.345,0,0,1,2.508.23l.085.012A.457.457,0,0,0,66.6,34.8a.374.374,0,0,0,.179-.171c.081-.135,1.975-3.5,2.055-3.643A.256.256,0,0,0,68.858,30.771Z" transform="translate(-6.838 -0.011)" fill="url(#linear-gradient-39)"/>
    <path id="Path_10318" data-name="Path 10318" d="M48.549,36.959c6.665-4.845,13.042-6.139,15.757-6.139a3.959,3.959,0,0,1,.612.036V30.5a4.26,4.26,0,0,0-.612-.034c-2.759,0-9.229,1.307-15.965,6.207a38.634,38.634,0,0,0-4.685,3.966c.119.047.239.093.36.139A38.477,38.477,0,0,1,48.549,36.959Z" transform="translate(-3.611)" fill="#96b33f"/>
  </g>
</svg>
