<svg xmlns="http://www.w3.org/2000/svg" xmlns:xlink="http://www.w3.org/1999/xlink" width="83" height="40" viewBox="0 0 83 40">
    <defs>
        <path id="prefix__a" d="M0 0.158L82.598 0.158 82.598 39.728 0 39.728z"/>
    </defs>
    <g fill="none" fill-rule="evenodd">
        <mask id="prefix__b" fill="#fff">
            <use xlink:href="#prefix__a"/>
        </mask>
        <path fill="#1A1919" d="M46.823 13.169c-.589.433-1.208 1.026-1.786 1.739-.891 1.096-1.483 2.233-1.685 3.108-.107.402-.07.743.135.948.24.24.66.22 1.158.08.908-.266 2.19-1.635 3.191-3.513.78-1.465 1.21-2.896 1.224-3.882-.018-.339-.181-.514-.442-.605-.436-.148-1.139-.237-1.373-.046-.203.152-.172.545.03.85.156.234.251.405.251.405.02.038.034.083.034.133 0 .059-.02.113-.05.156-.108.155-.362.392-.687.627zm-9.89.233c.33-.248.456-.632.282-.862-.143-.19-.451-.214-.74-.074-1.006.508-2.221 1.536-3.326 2.895-.864 1.065-1.515 2.152-1.895 3.095-.194.49-.242.867-.017 1.09.356.355 1.12.094 1.876-.587.302-.263.618-.578.935-.942.33-.377.62-.749.845-1.096.111-.18.203-.299.243-.537 0-.108-.026-.207-.108-.32-.053-.067-.108-.155-.147-.249-.03-.07-.056-.139-.071-.205-.106-.496.2-1.017.748-1.397 0 0 .388-.255.823-.467 0 0 .347-.176.551-.344zM19.09 25.639c-1.203 1.949-2.887 4.14-4.916 6.309-1.966 2.101-4.066 3.99-5.812 5.19-3.81 2.493-6.7 3.29-7.98 1.935-.95-1.125-.073-3.45 1.962-5.769 1.616-1.753 4.428-3.899 7.813-6.09 1.127-.729 2.331-1.484 3.3-2.096 0 0 1.173-.74 1.692-1.064.557-.325.78-.742.78-.742.575-.93.915-1.486.915-1.486.041-.07.044-.109.023-.148-.045-.08-.213-.088-.41.014-3.49 1.92-6.861 2.325-8.432.758-1.41-1.404-1.006-4.044.754-6.815 2.551-4.09 7.466-8.368 13.788-11.579C26.281 2.17 30.01.893 33.431.23c0 0 .533-.084 1.021-.071 0 0 .565 0 .947.08.387.084.258.307.258.307-.141.362-2.155 3.596-2.155 3.596-.223.353-.521.274-.566.264-3.614-.761-8.705.874-13.104 4.555-3.252 2.719-5.598 6.067-6.537 8.886 0 0-.42 1.188.072 1.938.658.784 2.529.42 4.153-.82 0 0 .962-.698 2.298-1.817.985-.741 4.837-4.886 4.837-4.886 2.7-2.702 4.038-2.988 4.53-2.988.493 0 .89.335.89.694 0 .13-.045.222-.136.36-.826 1.217-4.967 6.645-4.967 6.645-.104.126-.177.28-.177.28-.048.107-.051.204.01.244.045.024.085.019.121 0 1.788-1.02 2.435-1.42 2.435-1.42.364-.221.612-.617.612-.617 4.173-5.214 9.105-7.133 10.86-5.753.717.563.955 1.74.489 3.233-.089.295-.067.447-.044.615.077.418.41.476 1.028.165 0 0 2.256-1.183 3.8-3.451.136-.246-.123-.346-.374-.442 0 0-2.212-.908-3.092-1.402-.428-.241-1.438-.823-2.163-1.825-1.036-1.43-1.419-2.916-.885-4.047.93-1.967 4.18-2.232 7.616-.298.9.473 1.528 1.088 2.242 1.787 1.548 1.515 2.554 3.29 3.058 4.66l.078.201s.113.299.42.352c0 0 .167.034.368.04 0 0 .807.03 1.7-.001.99-.02 2.064-.013 2.302-.012 1.44.033 2.491.93 2.865 2.356.035.139.089.176.178.203.157.022.273-.043.386-.193.585-.792 1.191-1.393 1.986-1.935.148-.101.198-.134.343-.218.291-.162.61-.244.904-.214.646.07.994.731.584 1.327-.146.2-.302.485-.302.485-.207.36-.383.823-.493 1.342-.138.645-.149 1.251-.055 1.709.133.56.422.938.747.938.143 0 .24-.057.393-.205.623-.649.92-.972.92-.972.598-.69 1.331-1.388 2.173-2.045 1.852-1.444 3.786-2.363 5.244-2.572.626-.076 1.16.233 1.293.784.077.323-.013.65-.161 1.052-.465 1.224-1.672 2.685-3.384 4.027-.998.78-2.02 1.388-2.956 1.79 0 0-.735.332-.97.456-.451.247-.568.858-.262 1.362.031.051.063.102.1.147.436.479 1.193.57 1.908.294l.134-.054c1.168-.499 2.5-1.478 2.5-1.478 2.08-1.466 4.279-3.973 4.279-3.973.9-1.052 2.361-2.497 2.361-2.497 1.38-1.335 2.404-1.72 2.404-1.72.59-.274 1.234-.28 1.61.03.378.308.368.81.039 1.299l-.156.23c-.365.47-1.033 1.049-1.552 1.693-2.797 3.473-5.453 8.777-5.453 8.777C66.812 34.226 61.587 38.69 61.587 38.69c-.26.216-.458.358-.673.499-.944.606-1.988.73-2.715.218-.744-.523-.802-1.434-.295-2.455.13-.282.433-.702.706-1.03 3.56-4.079 7.625-9.477 7.625-9.477 3.452-4.46 5.341-7.807 5.341-7.807.119-.209.13-.299.13-.299.015-.098-.016-.142-.043-.166-.07-.062-.179-.02-.313.082l-1.814 1.446c-2.964 2.373-5.467 3.38-5.467 3.38-.354.128-.752.25-1.175.274-.9.052-1.613-.138-2.12-.633-.572-.556-.761-1.426-.618-2.47 0 0 .127-.987.304-2.055.04-.246-.279-.163-.279-.163-1.763.312-2.495-1.29-2.495-1.29-.213-.41-.594.042-.594.042-.452.45-4.17 6.504-4.17 6.504-.043.099-.183.083-.183.083h-4.09c-.185.006-.073-.132-.073-.132 6.173-8.985 5.752-10.867 5.752-10.867-.02-.515-.26-.771-.689-1.004 0 0-.64-.373-1.928-.242-.162.018-.376.115-.417.38-.194 1.233-.39 2.332-.92 3.67-1.346 3.404-3.792 6.294-6.148 7.527-1.26.585-2.457.809-3.444.575-2.248-.53-2.69-3.321-1.3-6.653.077-.192-.09-.374-.3-.404-.1-.014-.167-.013-.273-.013-.657 0-1.233.3-1.547.762-.755 1.038-1.723 2.055-2.706 3.069-3.136 2.855-6.588 4.114-8.13 2.827-.726-.604-.854-1.625-.565-2.939.059-.278.048-.39-.05-.428-.099-.037-.164.013-.496.194 0 0-1.272.766-2.574 1.736 0 0-.352.235-.8.51 0 0-.836.581-1.135.958-.428.542-1.815 2.739-1.815 2.739zM11.2 29.486c.013-.055.009-.082-.011-.116-.037-.054-.134-.057-.252-.017-1.01.385-2.329 1.257-3.61 2.446-1.116 1.038-1.99 2.121-2.499 3.03-.329.588-.397 1.136-.123 1.4.338.325 1.098.145 1.806-.458.574-.51 1.342-1.34 2.156-2.35 1.334-1.656 2.358-3.264 2.533-3.935zM48.35 9.23c.165.006.216-.044.216-.044.05-.043.046-.109.039-.171-.07-.495-.61-1.52-1.395-2.599-.476-.652-.961-1.21-1.369-1.598-.254-.236-.545-.459-.867-.66-1.611-1.002-3.384-1.068-3.962-.146-.577.92.26 2.48 1.87 3.483.59.353 1.426.689 2.4 1.023 1.294.445 2.457.705 3.068.712zm21.116 2.65s-.283-.07-1.167.6c-.393.297-.426.336-.643.538-.904.84-1.452 1.718-1.227 1.959.226.242 1.142-.243 2.045-1.084.385-.357.704-.72.928-1.04 0 0 .681-.966.064-.973zm12.749-4.666c-.208.362-.547.755-.547.755-.593.678-1.492.742-2.213.242-.146-.102-.262-.207-.346-.36-.156-.306-.142-.613.09-1.022 0 0 .264-.446.671-.93.728-.934 1.771-1.294 2.358-.82.506.41.48 1.297 0 2.11l-.013.025z" mask="url(#prefix__b)"/>
    </g>
</svg>
